<svg width="32" height="32" xmlns="http://www.w3.org/2000/svg" xmlns:xlink="http://www.w3.org/1999/xlink">
  <defs>
    <path id="a" d="M.00009302.173H11.9999v20.3682H.00009302z"/>
    <path id="c" d="M.0003.173h11.9994243v20.3689H.0003z"/>
    <path id="e" d="M.1178.1044h23.764V5H.1178z"/>
  </defs>
  <g fill="none" fill-rule="evenodd">
    <g transform="translate(4 5.8273)">
      <mask id="b" fill="#fff">
        <use xlink:href="#a"/>
      </mask>
      <path d="M7.7529 15.2602l3.469-5.945c.174-.298.475-.448.778-.448V.1722c-.303 0-.604.15-.778.447L.1239 19.6442c-.174.299-.154.635-.006.897l7.608-4.437c-.123-.254-.135-.565.027-.844" fill="#FF5000" mask="url(#b)"/>
    </g>
    <g transform="translate(16 5.8273)">
      <mask id="d" fill="#fff">
        <use xlink:href="#c"/>
      </mask>
      <path d="M.7783 9.3149l3.469 5.945c.162.28.15.59.027.844l7.608 4.438c.148-.263.167-.599-.006-.898L.7783.6199c-.174-.298-.476-.448-.778-.448v8.696c.302 0 .604.149.778.447" fill="#9E1F63" mask="url(#d)"/>
    </g>
    <g transform="translate(4 21.8273)">
      <mask id="f" fill="#fff">
        <use xlink:href="#e"/>
      </mask>
      <path d="M23.8818 4.5414l-7.607-4.437c-.143.292-.435.511-.807.511h-6.936c-.372 0-.664-.219-.806-.511l-7.608 4.437c.152.267.435.459.785.459h22.195c.349 0 .633-.192.784-.459" fill="#662D91" mask="url(#f)"/>
    </g>
    <path d="M11.7256 21.9312c.143.293.435.512.807.512h6.935c.372 0 .664-.219.807-.512.123-.254.135-.564-.028-.844l-3.468-5.945c-.174-.298-.476-.447-.779-.447-.302 0-.604.149-.778.447l-3.469 5.945c-.162.28-.15.59-.027.844" fill="#FFF"/>
  </g>
</svg>