<svg width="32" height="32" xmlns="http://www.w3.org/2000/svg">
  <g fill-rule="nonzero" stroke-width=".75" fill="none">
    <path stroke="#161616" fill="#161616" d="M27.184375 14.70970464l-.46875-.33417721.75-.67763713-.571875-.44556962.75-.56624473-.496875-.37130802.7875-3.78734177-1.18125-3.51814346L19.15 7.82194093h-6.328125L5.21875 5.0092827 4.0375 8.52742616l.796875 3.78734177-.50625.37130802.75.56624473-.571875.44556962.75.67763713-.46875.33417721 1.078125 1.25316456-1.63125 5.0312236 1.509375 5.1333334 5.315625-1.4481013 1.03125.835443 2.1 1.4388186h3.590625l2.1-1.4388186 1.03125-.835443 5.315625 1.4481013 1.51875-5.1333334-1.640625-5.0312236z"/>
    <path d="M11.059375 24.6793249L5.74375 26.1274262l-1.509375-5.1333334 6.825 3.6852321zm16.6875-3.6852321l-1.51875 5.1333334-5.315625-1.4481013 6.834375-3.6852321z" stroke="#E4761B" fill="#E4761B" stroke-linecap="round" stroke-linejoin="round"/>
    <path d="M26.10625 15.9628692l-4.903125-1.42025317 1.715625-.44556962 3.1875 1.86582279zm-20.240625 0L9.0625 14.09704641l1.70625.44556962-4.903125 1.42025317zm-.609375-1.58734177l-.178125-1.12320675 3.984375.84472573-3.80625.27848102z" stroke="#763D16" fill="#763D16" stroke-linecap="round" stroke-linejoin="round"/>
    <path stroke="#763D16" fill="#763D16" stroke-linecap="round" stroke-linejoin="round" d="M26.715625 14.37552743l-3.796875-.27848102 3.975-.84472573z"/>
    <path d="M26.715625 14.37552743l-.609375 1.58734177-3.1875-1.86582279 3.796875.27848102zm-21.459375 0l3.80625-.27848102-3.196875 1.86582279-.609375-1.58734177zm17.6625-.27848102l4.228125-1.78227848-.253125.93755275-3.975.84472573zm-13.85625 0l-3.984375-.84472573-.24375-.93755275L9.0625 14.09704641z" stroke="#763D16" fill="#763D16" stroke-linecap="round" stroke-linejoin="round"/>
    <path stroke="#F6851B" fill="#F6851B" stroke-linecap="round" stroke-linejoin="round" d="M12.821875 7.82194093H19.15l-1.415625 3.81518987z"/>
    <path stroke="#F6851B" fill="#F6851B" stroke-linecap="round" stroke-linejoin="round" d="M17.734375 11.6371308H14.2375l-1.415625-3.81518987z"/>
    <path d="M27.146875 12.31476793l-4.228125 1.78227848-.075-4.78987341 4.303125 3.00759493zm-16.378125 2.2278481l-1.70625-.44556962.065625-4.78987341 1.640625 5.23544303z" stroke="#763D16" fill="#763D16" stroke-linecap="round" stroke-linejoin="round"/>
    <path d="M9.128125 9.307173L9.0625 14.09704641l-4.228125-1.78227848L9.128125 9.307173zm13.715625 0l.075 4.78987341-1.715625.44556962L22.84375 9.307173z" stroke="#763D16" fill="#763D16" stroke-linecap="round" stroke-linejoin="round"/>
    <path stroke="#E4761B" fill="#E4761B" stroke-linecap="round" stroke-linejoin="round" d="M14.2375 11.6371308L5.21875 5.0092827l7.603125 2.81265823z"/>
    <path stroke="#E2761B" fill="#E2761B" stroke-linecap="round" stroke-linejoin="round" d="M26.753125 5.0092827l-9.01875 6.6278481L19.15 7.82194093z"/>
    <path d="M20.9125 24.6793249l2.484375-3.6852321h4.35L20.9125 24.6793249zM4.234375 20.9940928h4.35l2.475 3.6852321-6.825-3.6852321z" stroke="#E4761B" fill="#E4761B" stroke-linecap="round" stroke-linejoin="round"/>
    <path d="M22.684375 16.7611814l5.0625 4.2329114h-4.35l-.7125-4.2329114zm-13.396875 0l-5.053125 4.2329114 1.63125-5.0312236 3.421875.7983122zm-.703125 4.2329114h-4.35L9.2875 16.7611814l-.703125 4.2329114z" stroke="#F6851B" fill="#F6851B" stroke-linecap="round" stroke-linejoin="round"/>
    <path stroke="#F6851B" fill="#F6851B" stroke-linecap="round" stroke-linejoin="round" d="M22.684375 16.7611814l3.421875-.7983122 1.640625 5.0312236z"/>
    <path d="M9.128125 9.307173l5.109375 2.3299578-3.46875 2.90548523L9.128125 9.307173zm12.075 5.23544303l-3.46875-2.90548523L22.84375 9.307173l-1.640625 5.23544303zm4.903125 1.42025317l.609375-1.58734177.46875.33417721-1.078125 1.25316456zm-20.240625 0L4.7875 14.70970464l.46875-.33417721.609375 1.58734177zm20.85-1.58734177l.178125-1.12320675.571875.44556962-.75.67763713zm-21.459375 0l-.75-.67763713.571875-.44556962.178125 1.12320675zM4.328125 12.68607595l.50625-.37130802.24375.93755275-.75-.56624473zm23.315625 0l-.75.56624473.253125-.93755275.496875.37130802z" stroke="#763D16" fill="#763D16" stroke-linecap="round" stroke-linejoin="round"/>
    <path d="M5.865625 15.9628692l4.903125-1.42025317L9.2875 16.7611814l-3.421875-.7983122zm20.240625 0l-3.421875.7983122-1.48125-2.21856537 4.903125 1.42025317z" stroke="#F6851B" fill="#F6851B" stroke-linecap="round" stroke-linejoin="round"/>
    <path d="M4.834375 12.31476793L4.0375 8.52742616l5.090625.77974684-4.29375 3.00759493zM22.84375 9.307173l5.090625-.77974684-.7875 3.78734177L22.84375 9.307173z" stroke="#763D16" fill="#763D16" stroke-linecap="round" stroke-linejoin="round"/>
    <path d="M10.76875 14.54261603l3.46875-2.90548523.31875 5.3561181-3.7875-2.45063287zm10.434375 0l1.48125 2.21856537-5.26875.2320675 3.7875-2.45063287zm-3.7875 2.45063287l.31875-5.3561181 3.46875 2.90548523-3.7875 2.45063287zM14.55625 16.9932489l-5.26875-.2320675 1.48125-2.21856537z" stroke="#E4761B" fill="#E4761B" stroke-linecap="round" stroke-linejoin="round"/>
    <path d="M26.753125 5.0092827l1.18125 3.51814346-5.090625.77974684 3.909375-4.2978903zm-21.534375 0l9.01875 6.6278481L9.128125 9.307173 5.21875 5.0092827zm17.625 4.2978903l-5.109375 2.3299578 9.01875-6.6278481L22.84375 9.307173z" stroke="#763D16" fill="#763D16" stroke-linecap="round" stroke-linejoin="round"/>
    <path stroke="#763D16" fill="#763D16" stroke-linecap="round" stroke-linejoin="round" d="M9.128125 9.307173L4.0375 8.52742616 5.21875 5.0092827z"/>
    <path d="M11.059375 24.6793249l-2.475-3.6852321L11.5 21.0312236l-.440625 3.6481013zm9.853125 0l-.440625-3.6481013 2.925-.0371308-2.484375 3.6852321z" stroke="#CD6116" fill="#CD6116" stroke-linecap="round" stroke-linejoin="round"/>
    <path stroke="#F6851B" fill="#F6851B" stroke-linecap="round" stroke-linejoin="round" d="M17.415625 16.9932489H14.55625l-.31875-5.3561181zM14.2375 11.6371308h3.496875l-.31875 5.3561181z"/>
    <path d="M12.090625 25.5147679l-1.03125-.835443 2.953125 1.3831224-1.921875-.5476794zm5.86875.5476794l2.953125-1.3831224-1.03125.835443-1.921875.5476794z" stroke="#C0AD9E" fill="#C0AD9E" stroke-linecap="round" stroke-linejoin="round"/>
    <path d="M13.99375 25.1991561l.01875.8632912-2.953125-1.3831224 2.934375.5198312zm3.99375 0l2.925-.5198312-2.953125 1.3831224.028125-.8632912z" stroke="#D7C1B3" fill="#D7C1B3" stroke-linecap="round" stroke-linejoin="round"/>
    <path d="M9.2875 16.7611814L11.5 21.0312236l-2.915625-.0371308.703125-4.2329114zm14.109375 4.2329114l-2.925.0371308 2.2125-4.2700422.7125 4.2329114z" stroke="#F6851B" fill="#F6851B" stroke-linecap="round" stroke-linejoin="round"/>
    <path d="M9.2875 16.7611814l2.1375 2.1443038.075 2.1257384-2.2125-4.2700422zm13.396875 0l-2.2125 4.2700422.084375-2.1257384 2.128125-2.1443038z" stroke="#E4751F" fill="#E4751F" stroke-linecap="round" stroke-linejoin="round"/>
    <path d="M11.059375 24.6793249l3.178125-1.5316456-.24375 2.0514768-2.934375-.5198312zm9.853125 0l-2.925.5198312-.253125-2.0514768 3.178125 1.5316456z" stroke="#D7C1B3" fill="#D7C1B3" stroke-linecap="round" stroke-linejoin="round"/>
    <path d="M14.2375 23.1476793l-3.178125 1.5316456L11.5 21.0312236l2.7375 2.1164557zm3.496875 0l2.7375-2.1164557.440625 3.6481013-3.178125-1.5316456z" stroke="#E4761B" fill="#E4761B" stroke-linecap="round" stroke-linejoin="round"/>
    <path d="M17.415625 16.9932489l5.26875-.2320675-2.128125 2.1443038-3.140625-1.9122363zM11.425 18.9054852l-2.1375-2.1443038 5.26875.2320675-3.13125 1.9122363z" stroke="#CD6116" fill="#CD6116" stroke-linecap="round" stroke-linejoin="round"/>
    <path d="M14.55625 16.9932489l-1.265625 1.0675106-1.865625.8447257 3.13125-1.9122363zm6 1.9122363l-1.875-.8447257-1.265625-1.0675106 3.140625 1.9122363z" stroke="#CD6116" fill="#CD6116" stroke-linecap="round" stroke-linejoin="round"/>
    <path d="M20.471875 21.0312236l-2.56875-1.3552742 2.653125-.7704642-.084375 2.1257384zm-8.971875 0l-.075-2.1257384 2.64375.7704642L11.5 21.0312236z" stroke="#F6851B" fill="#F6851B" stroke-linecap="round" stroke-linejoin="round"/>
    <path d="M14.06875 19.6759494l-2.64375-.7704642 1.865625-.8447257.778125 1.6151899zm3.834375 0l.778125-1.6151899 1.875.8447257-2.653125.7704642z" stroke="#233447" fill="#233447" stroke-linecap="round" stroke-linejoin="round"/>
    <path d="M18.68125 18.0607595l-.778125 1.6151899-.4875-2.6827005 1.265625 1.0675106zm-5.390625 0l1.265625-1.0675106-.4875 2.6827005-.778125-1.6151899z" stroke="#CD6116" fill="#CD6116" stroke-linecap="round" stroke-linejoin="round"/>
    <path d="M19.88125 25.5147679l-2.1 1.4388186.178125-.8911392 1.921875-.5476794zm-5.86875.5476794l.178125.8911392-2.1-1.4388186 1.921875.5476794z" stroke="#C0AD9E" fill="#C0AD9E" stroke-linecap="round" stroke-linejoin="round"/>
    <path stroke="#E2761B" fill="#E2761B" stroke-linecap="round" stroke-linejoin="round" d="M17.903125 19.6759494l-.609375-.993249.121875-1.6894515z"/>
    <path stroke="#E4751F" fill="#E4751F" stroke-linecap="round" stroke-linejoin="round" d="M14.06875 19.6759494l.4875-2.6827005.121875 1.6894515z"/>
    <path stroke="#F6851B" fill="#F6851B" stroke-linecap="round" stroke-linejoin="round" d="M17.415625 16.9932489l-.121875 1.6894515h-2.615625z"/>
    <path d="M14.678125 18.6827004l-.121875-1.6894515h2.859375l-2.7375 1.6894515zm3.225.993249l2.56875 1.3552742-2.7375 2.1164557.16875-3.4717299zM14.2375 23.1476793L11.5 21.0312236l2.56875-1.3552742.16875 3.4717299z" stroke="#F6851B" fill="#F6851B" stroke-linecap="round" stroke-linejoin="round"/>
    <path d="M14.06875 19.6759494l.61875 3.1654008-.45.3063291-.16875-3.4717299zm3.665625 3.4717299l-.45-.3063291.61875-3.1654008-.16875 3.4717299z" stroke="#F6851B" fill="#F6851B" stroke-linecap="round" stroke-linejoin="round"/>
    <path d="M17.29375 18.6827004l.609375.993249-.61875 3.1654008.009375-4.1586498zm-2.615625 0l.009375 4.1586498-.61875-3.1654008.609375-.993249z" stroke="#E4751F" fill="#E4751F" stroke-linecap="round" stroke-linejoin="round"/>
    <path d="M14.678125 18.6827004h2.615625l-.009375 4.1586498-2.60625-4.1586498zm2.60625 4.1586498H14.6875l-.009375-4.1586498 2.60625 4.1586498z" stroke="#F6851B" fill="#F6851B" stroke-linecap="round" stroke-linejoin="round"/>
    <path d="M17.9875 25.1991561l-.028125.8632912-.178125.8911392.20625-1.7544304zm-3.796875 1.7544304l-.178125-.8911392-.01875-.8632912.196875 1.7544304z" stroke="#C0AD9E" fill="#C0AD9E" stroke-linecap="round" stroke-linejoin="round"/>
    <path d="M13.99375 25.1991561l.225-.2042194-.028125 1.9586498-.196875-1.7544304zm3.7875 1.7544304l-.028125-1.9586498.234375.2042194-.20625 1.7544304z" stroke="#C0AD9E" fill="#C0AD9E" stroke-linecap="round" stroke-linejoin="round"/>
    <path d="M14.190625 26.9535865l.028125-1.9586498h3.534375l-3.5625 1.9586498zm3.5625-1.9586498l.028125 1.9586498h-3.590625l3.5625-1.9586498z" stroke="#C0AD9E" fill="#C0AD9E" stroke-linecap="round" stroke-linejoin="round"/>
    <path d="M17.734375 23.1476793l.253125 2.0514768-.234375-.2042194-.01875-1.8472574zm-3.515625 1.8472574l-.225.2042194.24375-2.0514768-.01875 1.8472574zm.01875-1.8472574l.140625.4362869-.159375 1.4109705.01875-1.8472574z" stroke="#161616" fill="#161616" stroke-linecap="round" stroke-linejoin="round"/>
    <path d="M17.753125 24.9949367l-.159375-1.4109705.140625-.4362869.01875 1.8472574zm-3.09375-1.735865l-.28125.3248945-.140625-.4362869.421875.1113924z" stroke="#161616" fill="#161616" stroke-linecap="round" stroke-linejoin="round"/>
    <path stroke="#161616" fill="#161616" stroke-linecap="round" stroke-linejoin="round" d="M17.734375 23.1476793l-.140625.440625-.28125-.328125z"/>
    <path d="M17.3125 23.2632252l-.028125-.421875.45.309375-.421875.1125zm-3.075-.1125l.45-.309375-.028125.421875-.421875-.1125z" stroke="#161616" fill="#161616" stroke-linecap="round" stroke-linejoin="round"/>
    <path stroke="#161616" fill="#161616" stroke-linecap="round" stroke-linejoin="round" d="M17.284375 22.8413502l.028125.421875h-2.653125zM14.659375 23.2590717l.028125-.4177215h2.596875l-2.625.4177215zm-.28125.3248945h3.215625l.159375 1.4109705-3.375-1.4109705z"/>
    <path d="M17.753125 24.9949367H14.21875l.159375-1.4109705 3.375 1.4109705zm-3.375-1.4109705l.28125-.3248945H17.3125l-2.934375.3248945z" stroke="#161616" fill="#161616" stroke-linecap="round" stroke-linejoin="round"/>
    <path stroke="#161616" fill="#161616" stroke-linecap="round" stroke-linejoin="round" d="M17.3125 23.2590717l.28125.375h-3.215625z"/>
  </g>
</svg>