<svg width="32" height="32" xmlns="http://www.w3.org/2000/svg" xmlns:xlink="http://www.w3.org/1999/xlink">
  <defs>
    <path d="M6 26v-7h5.101c.464 2.279 2.483 4 4.897 4 2.416 0 4.436-1.721 4.901-4H26v7H6zm1-11.309V17h-.785L7 14.691zM23 9v8h-3c-.552 0-1 .448-1 1 0 1.654-1.347 3-3.002 3C14.345 21 13 19.654 13 18c0-.552-.448-1-1-1H9V9h14zm2.785 8H25v-2.305L25.785 17zm2.16.73c.026.088.055.174.055.27v8c0 1.103-.897 2-2 2H6c-1.103 0-2-.897-2-2v-8c0-.096.029-.182.055-.27-.053-.188-.069-.387-.002-.585l2.199-6.467c.119-.347.414-.571.748-.641V8c0-.552.448-1 1-1h16c.552 0 1 .448 1 1v2.038c.334.07.627.293.746.64l2.201 6.467c.067.198.051.398-.002.585zM10 6c-.552 0-1-.448-1-1s.448-1 1-1h12c.552 0 1 .448 1 1s-.448 1-1 1H10z" id="a"/>
  </defs>
  <use fill="#ff0000" xlink:href="#a" fill-rule="evenodd"/>
</svg>